Coordinates
version=1
nRows=30
nColumns=21
inDegrees=yes

Units are S.I. units (second, meters, Newtons, ...)
If the header above contains a line with 'inDegrees', this indicates whether rotational values are in degrees (yes) or radians (no).

endheader
time	sternoclavicular_r2	sternoclavicular_r3	unrotscap_r3	unrotscap_r2	acromioclavicular_r2	acromioclavicular_r3	acromioclavicular_r1	unrothum_r1	unrothum_r3	unrothum_r2	elv_angle	shoulder_elev	shoulder1_r2	shoulder_rot	elbow_flexion	pro_sup	deviation	flexion	wrist_hand_r1	wrist_hand_r3
      3.01507538	    -19.32904591	      8.18687157	     -8.18687157	     19.32904591	     -3.91373861	     31.62945879	     14.21722405	    -14.21722405	    -31.62945879	      3.91373861	    129.99603741	     79.87191151	   -129.99603741	    -85.90666553	      0.01006275	      0.00000000	      0.00000000	     -0.00000000	     -0.00000000	      0.00000000
      3.03517588	    -19.37551121	      8.20655207	     -8.20655207	     19.37551121	     -3.92314689	     31.70549318	     14.25140098	    -14.25140098	    -31.70549318	      3.92314689	    129.99619507	     80.06391644	   -129.99619507	    -85.90847775	      0.00972071	      0.00000000	      0.00000000	     -0.00000000	     -0.00000000	      0.00000000
      3.05527638	    -19.42104560	      8.22583829	     -8.22583829	     19.42104560	     -3.93236668	     31.78000426	     14.28489320	    -14.28489320	    -31.78000426	      3.93236668	    129.99633329	     80.25207466	   -129.99633329	    -85.90946638	      0.00942387	      0.00000000	      0.00000000	     -0.00000000	     -0.00000000	      0.00000000
      3.07537688	    -19.46530626	      8.24458502	     -8.24458502	     19.46530626	     -3.94132856	     31.85243107	     14.31744855	    -14.31744855	    -31.85243107	      3.94132856	    129.99646160	     80.43496957	   -129.99646160	    -85.91067901	      0.00913795	      0.00000000	      0.00000000	     -0.00000000	     -0.00000000	      0.00000000
      3.09547739	    -19.50832281	      8.26280480	     -8.26280480	     19.50832281	     -3.95003854	     31.92282203	     14.34908880	    -14.34908880	    -31.92282203	      3.95003854	    129.99657822	     80.61272350	   -129.99657822	    -85.91178488	      0.00887554	      0.00000000	      0.00000000	     -0.00000000	     -0.00000000	      0.00000000
      3.11557789	    -19.55008978	      8.28049532	     -8.28049532	     19.55008978	     -3.95849550	     31.99116822	     14.37980995	    -14.37980995	    -31.99116822	      3.95849550	    129.99668448	     80.78531391	   -129.99668448	    -85.91279045	      0.00863417	      0.00000000	      0.00000000	     -0.00000000	     -0.00000000	      0.00000000
      3.13567839	    -19.59060224	      8.29765448	     -8.29765448	     19.59060224	     -3.96669845	     32.05746156	     14.40960835	    -14.40960835	    -32.05746156	      3.96669845	    129.99678146	     80.95272038	   -129.99678146	    -85.91370077	      0.00841203	      0.00000000	      0.00000000	     -0.00000000	     -0.00000000	      0.00000000
      3.15577889	    -19.62985323	      8.31427935	     -8.31427935	     19.62985323	     -3.97464598	     32.12169068	     14.43847889	    -14.43847889	    -32.12169068	      3.97464598	    129.99687010	     81.11491418	   -129.99687010	    -85.91452236	      0.00820777	      0.00000000	      0.00000000	     -0.00000000	     -0.00000000	      0.00000000
      3.17587940	    -19.66783604	      8.33036708	     -8.33036708	     19.66783604	     -3.98233672	     32.18384460	     14.46641665	    -14.46641665	    -32.18384460	      3.98233672	    129.99694449	     81.27186762	   -129.99694449	    -85.91520089	      0.00803772	      0.00000000	      0.00000000	     -0.00000000	     -0.00000000	      0.00000000
      3.19597990	    -19.70453546	      8.34591122	     -8.34591122	     19.70453546	     -3.98976761	     32.24389839	     14.49341042	    -14.49341042	    -32.24389839	      3.98976761	    129.99702544	     81.42351774	   -129.99702544	    -85.91593572	      0.00784823	      0.00000000	      0.00000000	     -0.00000000	     -0.00000000	      0.00000000
      3.21608040	    -19.73995403	      8.36091285	     -8.36091285	     19.73995403	     -3.99693915	     32.30185626	     14.51946208	    -14.51946208	    -32.30185626	      3.99693915	    129.99709351	     81.56987516	   -129.99709351	    -85.91654983	      0.00769019	      0.00000000	      0.00000000	     -0.00000000	     -0.00000000	      0.00000000
      3.23618090	    -19.77409393	      8.37537290	     -8.37537290	     19.77409393	     -4.00385178	     32.35772175	     14.54457323	    -14.54457323	    -32.35772175	      4.00385178	    129.99715631	     81.71094880	   -129.99715631	    -85.91711645	      0.00754343	      0.00000000	      0.00000000	     -0.00000000	     -0.00000000	      0.00000000
      3.25628141	    -19.80695691	      8.38929211	     -8.38929211	     19.80695691	     -4.01050587	     32.41149772	     14.56874516	    -14.56874516	    -32.41149772	      4.01050587	    129.99721438	     81.84674593	   -129.99721438	    -85.91763985	      0.00740697	      0.00000000	      0.00000000	     -0.00000000	     -0.00000000	      0.00000000
      3.27638191	    -19.83854413	      8.40267096	     -8.40267096	     19.83854413	     -4.01690164	     32.46318608	     14.59197872	    -14.59197872	    -32.46318608	      4.01690164	    129.99726810	     81.97727134	   -129.99726810	    -85.91812362	      0.00728017	      0.00000000	      0.00000000	     -0.00000000	     -0.00000000	      0.00000000
      3.29648241	    -19.86885690	      8.41551002	     -8.41551002	     19.86885690	     -4.02303936	     32.51278897	     14.61427488	    -14.61427488	    -32.51278897	      4.02303936	    129.99731772	     82.10253045	   -129.99731772	    -85.91857108	      0.00716265	      0.00000000	      0.00000000	     -0.00000000	     -0.00000000	      0.00000000
      3.31658291	    -19.89790053	      8.42781153	     -8.42781153	     19.89790053	     -4.02892010	     32.56031507	     14.63563754	    -14.63563754	    -32.56031507	      4.02892010	    129.99736368	     82.22254516	   -129.99736368	    -85.91898507	      0.00705343	      0.00000000	      0.00000000	     -0.00000000	     -0.00000000	      0.00000000
      3.33668342	    -19.92568037	      8.43957776	     -8.43957776	     19.92568037	     -4.03454496	     32.60577315	     14.65607063	    -14.65607063	    -32.60577315	      4.03454496	    129.99740617	     82.33733764	   -129.99740617	    -85.91936841	      0.00695221	      0.00000000	      0.00000000	     -0.00000000	     -0.00000000	      0.00000000
      3.35678392	    -19.95220435	      8.45081207	     -8.45081207	     19.95220435	     -4.03991552	     32.64917618	     14.67557999	    -14.67557999	    -32.64917618	      4.03991552	    129.99744548	     82.44694061	   -129.99744548	    -85.91972338	      0.00685835	      0.00000000	      0.00000000	     -0.00000000	     -0.00000000	      0.00000000
      3.37688442	    -19.97748171	      8.46151837	     -8.46151837	     19.97748171	     -4.04503367	     32.69053927	     14.69417242	    -14.69417242	    -32.69053927	      4.04503367	    129.99748183	     82.55139228	   -129.99748183	    -85.92005206	      0.00677133	      0.00000000	      0.00000000	     -0.00000000	     -0.00000000	      0.00000000
      3.39698492	    -20.00152319	      8.47170120	     -8.47170120	     20.00152319	     -4.04990158	     32.72988002	     14.71185582	    -14.71185582	    -32.72988002	      4.04990158	    129.99751546	     82.65073703	   -129.99751546	    -85.92035622	      0.00669063	      0.00000000	      0.00000000	     -0.00000000	     -0.00000000	      0.00000000
      3.41708543	    -20.02434100	      8.48136575	     -8.48136575	     20.02434100	     -4.05452173	     32.76721838	     14.72863915	    -14.72863915	    -32.76721838	      4.05452173	    129.99754656	     82.74502527	   -129.99754656	    -85.92063757	      0.00661580	      0.00000000	      0.00000000	     -0.00000000	     -0.00000000	      0.00000000
      3.43718593	    -20.04595273	      8.49051946	     -8.49051946	     20.04595273	     -4.05889766	     32.80258315	     14.74453537	    -14.74453537	    -32.80258315	      4.05889766	    129.99756682	     82.83432974	   -129.99756682	    -85.92082002	      0.00656979	      0.00000000	      0.00000000	     -0.00000000	     -0.00000000	      0.00000000
      3.45728643	    -20.06636152	      8.49916366	     -8.49916366	     20.06636152	     -4.06303003	     32.83597948	     14.75954679	    -14.75954679	    -32.83597948	      4.06303003	    129.99760177	     82.91866341	   -129.99760177	    -85.92114003	      0.00648308	      0.00000000	      0.00000000	     -0.00000000	     -0.00000000	      0.00000000
      3.47738693	    -20.08559551	      8.50731027	     -8.50731027	     20.08559551	     -4.06692452	     32.86745339	     14.77369410	    -14.77369410	    -32.86745339	      4.06692452	    129.99762620	     82.99814253	   -129.99762620	    -85.92136117	      0.00642388	      0.00000000	      0.00000000	     -0.00000000	     -0.00000000	      0.00000000
      3.49748744	    -20.10330532	      8.51481131	     -8.51481131	     20.10330532	     -4.07051039	     32.89643318	     14.78672031	    -14.78672031	    -32.89643318	      4.07051039	    129.99760137	     83.07132340	   -129.99760137	    -85.91822059	      0.00653020	      0.00000000	      0.00000000	     -0.00000000	     -0.00000000	      0.00000000
      3.51758794	    -20.12012153	      8.52193386	     -8.52193386	     20.12012153	     -4.07391533	     32.92395071	     14.79908925	    -14.79908925	    -32.92395071	      4.07391533	    129.99761669	     83.14081170	   -129.99761669	    -85.91821365	      0.00644334	      0.00000000	      0.00000000	     -0.00000000	     -0.00000000	      0.00000000
      3.53768844	    -20.13642733	      8.52884023	     -8.52884023	     20.13642733	     -4.07721693	     32.95063303	     14.81108277	    -14.81108277	    -32.95063303	      4.07721693	    129.99768854	     83.20819092	   -129.99768854	    -85.92192584	      0.00627214	      0.00000000	      0.00000000	     -0.00000000	     -0.00000000	      0.00000000
      3.55778894	    -20.15115246	      8.53507710	     -8.53507710	     20.15115246	     -4.08019847	     32.97472877	     14.82191364	    -14.82191364	    -32.97472877	      4.08019847	    129.99770598	     83.26903840	   -129.99770598	    -85.92208504	      0.00622947	      0.00000000	      0.00000000	     -0.00000000	     -0.00000000	      0.00000000
      3.57788945	    -20.16480677	      8.54086042	     -8.54086042	     20.16480677	     -4.08296319	     32.99707227	     14.83195689	    -14.83195689	    -32.99707227	      4.08296319	    129.99772182	     83.32546106	   -129.99772182	    -85.92223084	      0.00619074	      0.00000000	      0.00000000	     -0.00000000	     -0.00000000	      0.00000000
      3.59798995	    -20.17741784	      8.54620187	     -8.54620187	     20.17741784	     -4.08551667	     33.01770864	     14.84123280	    -14.84123280	    -33.01770864	      4.08551667	    129.99773621	     83.37757279	   -129.99773621	    -85.92236394	      0.00615546	      0.00000000	      0.00000000	     -0.00000000	     -0.00000000	      0.00000000
